<?xml version="1.0" encoding="UTF-8"?>
<svg width="500" height="400" viewBox="0 0 500 400" fill="none" xmlns="http://www.w3.org/2000/svg">
  <!-- Python Logo -->
  <circle cx="250" cy="200" r="150" fill="#42E2BB" opacity="0.1"/>
  <path d="M250 100c-55.2 0-100 44.8-100 100s44.8 100 100 100 100-44.8 100-100-44.8-100-100-100zm0 180c-44.2 0-80-35.8-80-80s35.8-80 80-80 80 35.8 80 80-35.8 80-80 80z" fill="#42E2BB"/>
  
  <!-- Code Lines -->
  <g stroke="#42E2BB" stroke-width="2" opacity="0.6">
    <line x1="150" y1="150" x2="350" y2="150"/>
    <line x1="150" y1="200" x2="350" y2="200"/>
    <line x1="150" y1="250" x2="350" y2="250"/>
  </g>
  
  <!-- Decorative Elements -->
  <circle cx="100" cy="100" r="20" fill="#42E2BB" opacity="0.2"/>
  <circle cx="400" cy="300" r="30" fill="#42E2BB" opacity="0.2"/>
  <circle cx="150" cy="350" r="25" fill="#42E2BB" opacity="0.2"/>
</svg> 